dataset
version=1
nRows=25
nColumns=39
inDegrees=no
endheader
time	sternoclavicular_r2	sternoclavicular_r3	unrotscap_r3	unrotscap_r2	acromioclavicular_r2	acromioclavicular_r3	acromioclavicular_r1	unrothum_r1	unrothum_r3	unrothum_r2	elv_angle	shoulder_elv	shoulder1_r2	shoulder_rot	elbow_flexion	pro_sup	deviation	flexion	cmc_abduction	cmc_flexion	mp_flexion	ip_flexion	mcp2_flexion	mcp2_abduction	pm2_flexion	md2_flexion	mcp3_flexion	mcp3_abduction	pm3_flexion	md3_flexion	mcp4_flexion	mcp4_abduction	pm4_flexion	md4_flexion	mcp5_flexion	mcp5_abduction	pm5_flexion	md5_flexion
1.190000	-0.033700	-0.360455	0.156485	0.211000	0.184443	0.141309	-0.116294	0.005609	0.111255	0.209210	0.223105	0.027437	0.146525	0.146525	1.679529	1.191120	0.000000	0.000000	0.000000	0.000000	0.000000	0.000000	0.000000	0.000000	0.000000	0.000000	0.000000	0.000000	0.000000	0.000000	0.000000	0.000000	0.000000	0.000000	0.000000	0.000000	0.000000	0.000000
1.195000	-0.033537	-0.360440	0.156587	0.210089	0.183399	0.141901	-0.116217	0.005724	0.111330	0.208049	0.222037	0.027437	0.146525	0.146525	1.686147	1.190860	0.000000	0.000000	0.000000	0.000000	0.000000	0.000000	0.000000	0.000000	0.000000	0.000000	0.000000	0.000000	0.000000	0.000000	0.000000	0.000000	0.000000	0.000000	0.000000	0.000000	0.000000	0.000000
1.200000	-0.033373	-0.360412	0.156681	0.209172	0.182347	0.142506	-0.116127	0.005838	0.111421	0.206878	0.220964	0.027437	0.146525	0.146525	1.692793	1.190604	0.000000	0.000000	0.000000	0.000000	0.000000	0.000000	0.000000	0.000000	0.000000	0.000000	0.000000	0.000000	0.000000	0.000000	0.000000	0.000000	0.000000	0.000000	0.000000	0.000000	0.000000	0.000000
1.205000	-0.033208	-0.360371	0.156766	0.208250	0.181287	0.143124	-0.116021	0.005949	0.111529	0.205697	0.219886	0.027437	0.146525	0.146525	1.699465	1.190350	0.000000	0.000000	0.000000	0.000000	0.000000	0.000000	0.000000	0.000000	0.000000	0.000000	0.000000	0.000000	0.000000	0.000000	0.000000	0.000000	0.000000	0.000000	0.000000	0.000000	0.000000	0.000000
1.210000	-0.033042	-0.360318	0.156842	0.207323	0.180219	0.143755	-0.115900	0.006058	0.111654	0.204508	0.218804	0.027437	0.146525	0.146525	1.706161	1.190100	0.000000	0.000000	0.000000	0.000000	0.000000	0.000000	0.000000	0.000000	0.000000	0.000000	0.000000	0.000000	0.000000	0.000000	0.000000	0.000000	0.000000	0.000000	0.000000	0.000000	0.000000	0.000000
1.215000	-0.032876	-0.360251	0.156908	0.206391	0.179144	0.144398	-0.115764	0.006164	0.111797	0.203310	0.217718	0.027437	0.146525	0.146525	1.712878	1.189852	0.000000	0.000000	0.000000	0.000000	0.000000	0.000000	0.000000	0.000000	0.000000	0.000000	0.000000	0.000000	0.000000	0.000000	0.000000	0.000000	0.000000	0.000000	0.000000	0.000000	0.000000	0.000000
1.220000	-0.032708	-0.360170	0.156966	0.205455	0.178063	0.145053	-0.115613	0.006268	0.111958	0.202105	0.216629	0.027437	0.146525	0.146525	1.719614	1.189607	0.000000	0.000000	0.000000	0.000000	0.000000	0.000000	0.000000	0.000000	0.000000	0.000000	0.000000	0.000000	0.000000	0.000000	0.000000	0.000000	0.000000	0.000000	0.000000	0.000000	0.000000	0.000000
1.225000	-0.032541	-0.360075	0.157014	0.204515	0.176975	0.145720	-0.115445	0.006369	0.112138	0.200892	0.215538	0.027437	0.146525	0.146525	1.726366	1.189364	0.000000	0.000000	0.000000	0.000000	0.000000	0.000000	0.000000	0.000000	0.000000	0.000000	0.000000	0.000000	0.000000	0.000000	0.000000	0.000000	0.000000	0.000000	0.000000	0.000000	0.000000	0.000000
1.230000	-0.032372	-0.359966	0.157052	0.203571	0.175881	0.146399	-0.115262	0.006466	0.112336	0.199672	0.214444	0.027437	0.146525	0.146525	1.733132	1.189124	0.000000	0.000000	0.000000	0.000000	0.000000	0.000000	0.000000	0.000000	0.000000	0.000000	0.000000	0.000000	0.000000	0.000000	0.000000	0.000000	0.000000	0.000000	0.000000	0.000000	0.000000	0.000000
1.235000	-0.032204	-0.359843	0.157080	0.202623	0.174781	0.147090	-0.115063	0.006560	0.112553	0.198445	0.213349	0.027437	0.146525	0.146525	1.739910	1.188887	0.000000	0.000000	0.000000	0.000000	0.000000	0.000000	0.000000	0.000000	0.000000	0.000000	0.000000	0.000000	0.000000	0.000000	0.000000	0.000000	0.000000	0.000000	0.000000	0.000000	0.000000	0.000000
1.240000	-0.032035	-0.359705	0.157099	0.201672	0.173677	0.147792	-0.114847	0.006650	0.112790	0.197212	0.212252	0.027437	0.146525	0.146525	1.746697	1.188651	0.000000	0.000000	0.000000	0.000000	0.000000	0.000000	0.000000	0.000000	0.000000	0.000000	0.000000	0.000000	0.000000	0.000000	0.000000	0.000000	0.000000	0.000000	0.000000	0.000000	0.000000	0.000000
1.245000	-0.031866	-0.359553	0.157108	0.200719	0.172567	0.148505	-0.114616	0.006736	0.113045	0.195974	0.211155	0.027437	0.146525	0.146525	1.753492	1.188419	0.000000	0.000000	0.000000	0.000000	0.000000	0.000000	0.000000	0.000000	0.000000	0.000000	0.000000	0.000000	0.000000	0.000000	0.000000	0.000000	0.000000	0.000000	0.000000	0.000000	0.000000	0.000000
1.250000	-0.031698	-0.359386	0.157107	0.199763	0.171453	0.149229	-0.114368	0.006818	0.113320	0.194731	0.210057	0.027437	0.146525	0.146525	1.760292	1.188188	0.000000	0.000000	0.000000	0.000000	0.000000	0.000000	0.000000	0.000000	0.000000	0.000000	0.000000	0.000000	0.000000	0.000000	0.000000	0.000000	0.000000	0.000000	0.000000	0.000000	0.000000	0.000000
1.255000	-0.031530	-0.359205	0.157096	0.198806	0.170336	0.149963	-0.114105	0.006896	0.113615	0.193483	0.208960	0.027437	0.146525	0.146525	1.767095	1.187960	0.000000	0.000000	0.000000	0.000000	0.000000	0.000000	0.000000	0.000000	0.000000	0.000000	0.000000	0.000000	0.000000	0.000000	0.000000	0.000000	0.000000	0.000000	0.000000	0.000000	0.000000	0.000000
1.260000	-0.031362	-0.359009	0.157075	0.197846	0.169214	0.150708	-0.113825	0.006969	0.113930	0.192231	0.207863	0.027437	0.146525	0.146525	1.773900	1.187733	0.000000	0.000000	0.000000	0.000000	0.000000	0.000000	0.000000	0.000000	0.000000	0.000000	0.000000	0.000000	0.000000	0.000000	0.000000	0.000000	0.000000	0.000000	0.000000	0.000000	0.000000	0.000000
1.265000	-0.031195	-0.358799	0.157044	0.196885	0.168090	0.151462	-0.113530	0.007037	0.114264	0.190975	0.206768	0.027437	0.146525	0.146525	1.780704	1.187509	0.000000	0.000000	0.000000	0.000000	0.000000	0.000000	0.000000	0.000000	0.000000	0.000000	0.000000	0.000000	0.000000	0.000000	0.000000	0.000000	0.000000	0.000000	0.000000	0.000000	0.000000	0.000000
1.270000	-0.031028	-0.358575	0.157004	0.195924	0.166962	0.152226	-0.113219	0.007100	0.114617	0.189717	0.205674	0.027437	0.146525	0.146525	1.787506	1.187286	0.000000	0.000000	0.000000	0.000000	0.000000	0.000000	0.000000	0.000000	0.000000	0.000000	0.000000	0.000000	0.000000	0.000000	0.000000	0.000000	0.000000	0.000000	0.000000	0.000000	0.000000	0.000000
1.275000	-0.030863	-0.358336	0.156954	0.194961	0.165833	0.153000	-0.112893	0.007158	0.114991	0.188456	0.204583	0.027437	0.146525	0.146525	1.794305	1.187066	0.000000	0.000000	0.000000	0.000000	0.000000	0.000000	0.000000	0.000000	0.000000	0.000000	0.000000	0.000000	0.000000	0.000000	0.000000	0.000000	0.000000	0.000000	0.000000	0.000000	0.000000	0.000000
1.280000	-0.030698	-0.358083	0.156895	0.193999	0.164701	0.153781	-0.112552	0.007211	0.115383	0.187192	0.203493	0.027437	0.146525	0.146525	1.801098	1.186847	0.000000	0.000000	0.000000	0.000000	0.000000	0.000000	0.000000	0.000000	0.000000	0.000000	0.000000	0.000000	0.000000	0.000000	0.000000	0.000000	0.000000	0.000000	0.000000	0.000000	0.000000	0.000000
1.285000	-0.030535	-0.357817	0.156826	0.193036	0.163568	0.154571	-0.112196	0.007259	0.115795	0.185928	0.202407	0.027437	0.146525	0.146525	1.807884	1.186630	0.000000	0.000000	0.000000	0.000000	0.000000	0.000000	0.000000	0.000000	0.000000	0.000000	0.000000	0.000000	0.000000	0.000000	0.000000	0.000000	0.000000	0.000000	0.000000	0.000000	0.000000	0.000000
1.290000	-0.030373	-0.357537	0.156749	0.192074	0.162435	0.155369	-0.111825	0.007301	0.116226	0.184662	0.201324	0.027437	0.146525	0.146525	1.814662	1.186415	0.000000	0.000000	0.000000	0.000000	0.000000	0.000000	0.000000	0.000000	0.000000	0.000000	0.000000	0.000000	0.000000	0.000000	0.000000	0.000000	0.000000	0.000000	0.000000	0.000000	0.000000	0.000000
1.295000	-0.030213	-0.357244	0.156663	0.191113	0.161300	0.156174	-0.111441	0.007338	0.116675	0.183396	0.200245	0.027437	0.146525	0.146525	1.821431	1.186201	0.000000	0.000000	0.000000	0.000000	0.000000	0.000000	0.000000	0.000000	0.000000	0.000000	0.000000	0.000000	0.000000	0.000000	0.000000	0.000000	0.000000	0.000000	0.000000	0.000000	0.000000	0.000000
1.300000	-0.030054	-0.356939	0.156568	0.190153	0.160165	0.156987	-0.111043	0.007370	0.117143	0.182130	0.199170	0.027437	0.146525	0.146525	1.828189	1.185990	0.000000	0.000000	0.000000	0.000000	0.000000	0.000000	0.000000	0.000000	0.000000	0.000000	0.000000	0.000000	0.000000	0.000000	0.000000	0.000000	0.000000	0.000000	0.000000	0.000000	0.000000	0.000000
1.305000	-0.029897	-0.356622	0.156466	0.189195	0.159031	0.157806	-0.110631	0.007396	0.117628	0.180865	0.198100	0.027437	0.146525	0.146525	1.834935	1.185779	0.000000	0.000000	0.000000	0.000000	0.000000	0.000000	0.000000	0.000000	0.000000	0.000000	0.000000	0.000000	0.000000	0.000000	0.000000	0.000000	0.000000	0.000000	0.000000	0.000000	0.000000	0.000000
1.310000	-0.029742	-0.356293	0.156355	0.188238	0.157898	0.158630	-0.110207	0.007417	0.118131	0.179600	0.197035	0.027437	0.146525	0.146525	1.841668	1.185571	0.000000	0.000000	0.000000	0.000000	0.000000	0.000000	0.000000	0.000000	0.000000	0.000000	0.000000	0.000000	0.000000	0.000000	0.000000	0.000000	0.000000	0.000000	0.000000	0.000000	0.000000	0.000000
